<svg xmlns="http://www.w3.org/2000/svg" viewBox="0 0 47 47">
  <defs>
    <style>.cls-1{fill:#d66f43;}</style>
  </defs>
  <title>Artboard 1</title>
  <path class="cls-1" d="M23.5,10.14A3.81,3.81,0,0,0,19.7,14v3.7h7.6V14A3.81,3.81,0,0,0,23.5,10.14Z"/>
  <path class="cls-1"
        d="M3.43,0V23.93C3.43,36.67,23.5,47,23.5,47S43.57,36.67,43.57,23.93V0ZM34.35,30.15A2.86,2.86,0,0,1,31.5,33h-16a2.86,2.86,0,0,1-2.86-2.85V20.51a2.87,2.87,0,0,1,2.86-2.86h.38V14a7.61,7.61,0,1,1,15.22,0v3.7h.39a2.86,2.86,0,0,1,2.85,2.86Z"/>
</svg>
